<svg xmlns="http://www.w3.org/2000/svg" xmlns:xlink="http://www.w3.org/1999/xlink" xmlns:lucid="lucid" width="776" height="200"><g transform="translate(-380 -340)" lucid:page-tab-id="0_0"><path d="M400 362c0-1.1.9-2 2-2h76c1.1 0 2 .9 2 2v76c0 1.1-.9 2-2 2h-76c-1.1 0-2-.9-2-2z" fill="#fff" fill-opacity="0"/><use xlink:href="#a" transform="matrix(1,0,0,1,405,365) translate(9.81481481481481 45.66666666666667)"/><path d="M800 362c0-1.1.9-2 2-2h76c1.1 0 2 .9 2 2v76c0 1.1-.9 2-2 2h-76c-1.1 0-2-.9-2-2z" fill="#fff" fill-opacity="0"/><use xlink:href="#b" transform="matrix(1,0,0,1,805.0012000104997,365) translate(9.81481481481481 45.66666666666667)"/><path d="M841.5 460h257.88M841.54 460H840" stroke="#b1d6f0" stroke-width="3" fill="none"/><path d="M1115.14 460l-14.26 4.64v-9.28z" stroke="#b1d6f0" stroke-width="3" fill="#b1d6f0"/><path d="M440 500h400M441.5 485v30M838.5 515v-30" stroke="#b1d6f0" stroke-width="3" fill="none"/><path d="M600 442c0-1.1.9-2 2-2h76c1.1 0 2 .9 2 2v76c0 1.1-.9 2-2 2h-76c-1.1 0-2-.9-2-2z" fill="#fff" fill-opacity="0"/><use xlink:href="#c" transform="matrix(1,0,0,1,604.9940000599995,445) translate(26.185185185185183 45.66666666666667)"/><path d="M940 402c0-1.1.9-2 2-2h76c1.1 0 2 .9 2 2v76c0 1.1-.9 2-2 2h-76c-1.1 0-2-.9-2-2z" fill="#fff" fill-opacity="0"/><use xlink:href="#d" transform="matrix(1,0,0,1,945,405) translate(18.777777777777775 45.66666666666667)"/><path d="M821.06 478.94l37.88-37.88M821.1 478.9L820 480M858.9 441.1l1.1-1.1M858.94 478.94l-37.88-37.88M858.9 478.9l1.1 1.1M821.1 441.1L820 440M421.06 478.94l37.88-37.88M421.1 478.9L420 480M458.9 441.1l1.1-1.1M458.94 478.94l-37.88-37.88M458.9 478.9l1.1 1.1M421.1 441.1L420 440" stroke="#b1d6f0" stroke-width="3" fill="none"/><defs><path fill="#b1d6f0" d="M145-31C134-9 116 4 85 4 32 4 16-35 15-94c0-59 17-99 70-100 32-1 48 14 60 33 0-11-1-24 2-32h30l-1 268h-32zM93-21c41 0 51-33 51-76s-8-73-50-73c-40 0-46 35-46 75s5 74 45 74" id="e"/><path fill="#b1d6f0" d="M27 0v-27h64v-190l-56 39v-29l58-41h29v221h61V0H27" id="f"/><g id="a"><use transform="matrix(0.14814814814814817,0,0,0.14814814814814817,0,0)" xlink:href="#e"/><use transform="matrix(0.10370370370370371,0,0,0.10370370370370371,29.629629629629633,7.466666666666668)" xlink:href="#f"/></g><path fill="#b1d6f0" d="M101-251c82-7 93 87 43 132L82-64C71-53 59-42 53-27h129V0H18c2-99 128-94 128-182 0-28-16-43-45-43s-46 15-49 41l-32-3c6-41 34-60 81-64" id="g"/><g id="b"><use transform="matrix(0.14814814814814817,0,0,0.14814814814814817,0,0)" xlink:href="#e"/><use transform="matrix(0.10370370370370371,0,0,0.10370370370370371,29.629629629629633,7.466666666666668)" xlink:href="#g"/></g><path fill="#b1d6f0" d="M114-163C36-179 61-72 57 0H25l-1-190h30c1 12-1 29 2 39 6-27 23-49 58-41v29" id="h"/><use transform="matrix(0.14814814814814817,0,0,0.14814814814814817,0,0)" xlink:href="#h" id="c"/><path fill="#b1d6f0" d="M76-208v77h127v40H76V0H24v-248h183v40H76" id="i"/><use transform="matrix(0.14814814814814817,0,0,0.14814814814814817,0,0)" xlink:href="#i" id="d"/></defs></g></svg>