<svg xmlns="http://www.w3.org/2000/svg" xmlns:xlink="http://www.w3.org/1999/xlink" xmlns:lucid="lucid" width="750.33" height="822"><g transform="translate(-700.666066661417 -229)" lucid:page-tab-id="0_0"><path d="M800.67 708c0-1.1.9-2 2-2h76c1.1 0 2 .9 2 2v76c0 1.1-.9 2-2 2h-76c-1.1 0-2-.9-2-2z" fill="#fff" fill-opacity="0"/><use xlink:href="#a" transform="matrix(1,0,0,1,805.666066661417,711) translate(11.370370370370367 45.66666666666667)"/><path d="M1200.67 708c0-1.1.9-2 2-2h76c1.1 0 2 .9 2 2v76c0 1.1-.9 2-2 2h-76c-1.1 0-2-.9-2-2z" fill="#fff" fill-opacity="0"/><use xlink:href="#b" transform="matrix(1,0,0,1,1205.6672666719164,711) translate(20.185185185185183 45.66666666666667)"/><path d="M840.67 846h400M842.17 831v30M1239.16 861v-30" stroke="#b1d6f0" stroke-width="3" fill="none"/><path d="M1000.67 848c0-1.1.9-2 2-2h76c1.1 0 2 .9 2 2v76c0 1.1-.9 2-2 2h-76c-1.1 0-2-.9-2-2z" fill="#fff" fill-opacity="0"/><use xlink:href="#c" transform="matrix(1,0,0,1,1005.6666666666667,851) translate(5.370370370370367 45.66666666666667)"/><path d="M821.73 824.94l37.88-37.88M821.75 824.9l-1.08 1.1M859.58 787.1l1.1-1.1M859.65 824.9l-35.08-37.8M859.62 824.87l1.05 1.13" stroke="#b1d6f0" stroke-width="3" fill="none"/><path d="M825.7 786.1l-2.2 2.05-2-2.15h4.1z" fill="#b1d6f0"/><path d="M1221.73 824.94l37.88-37.88M1221.75 824.9l-1.08 1.1M1259.58 787.1l1.1-1.1M1259.65 824.9l-35.08-37.8M1259.62 824.87l1.05 1.13M1224.6 787.13l-1.05-1.13" stroke="#b1d6f0" stroke-width="3" fill="none"/><path d="M720.67 768c0-1.1.9-2 2-2h76c1.1 0 2 .9 2 2v76c0 1.1-.9 2-2 2h-76c-1.1 0-2-.9-2-2z" fill="#fff" fill-opacity="0"/><use xlink:href="#d" transform="matrix(1,0,0,1,725.666066661417,771) translate(15.814814814814813 45.66666666666667)"/><path d="M1280.67 768c0-1.1.9-2 2-2h76c1.1 0 2 .9 2 2v76c0 1.1-.9 2-2 2h-76c-1.1 0-2-.9-2-2z" fill="#fff" fill-opacity="0"/><use xlink:href="#e" transform="matrix(1,0,0,1,1285.6672666719164,771) translate(17.22222222222222 45.66666666666667)"/><path d="M1000.67 699c0-1.1.9-2 2-2h76c1.1 0 2 .9 2 2v134c0 1.1-.9 2-2 2h-76c-1.1 0-2-.9-2-2z" fill="#fff" fill-opacity="0"/><path d="M1000.67 728c0-1.1.9-2 2-2h76c1.1 0 2 .9 2 2v76c0 1.1-.9 2-2 2h-76c-1.1 0-2-.9-2-2z" fill="#fff" fill-opacity="0"/><use xlink:href="#f" transform="matrix(1,0,0,1,1005.6666666666667,731) translate(14.259259259259256 45.66666666666667)"/><path d="M1021.73 824.94l37.88-37.88M1021.75 824.9l-1.08 1.1M1059.58 787.1l1.1-1.1M1059.65 824.9l-35.08-37.8M1059.62 824.87l1.05 1.13M1024.6 787.13l-1.05-1.13" stroke="#b1d6f0" stroke-width="3" fill="none"/><path d="M842.35 803.7l197.32-562.76" fill="none"/><path d="M842.35 803.7l6.58-18.76m6.58-18.76l13.16-37.5m6.58-18.77l13.15-37.5m6.57-18.77l13.16-37.52m6.57-18.74l13.16-37.52m6.57-18.76l13.16-37.52m6.57-18.76l13.15-37.5m6.58-18.77L987.05 391m6.58-18.75l13.15-37.5m6.58-18.77l13.15-37.52m6.6-18.76l6.57-18.76M842.36 803.67l-.34.97M1039.66 240.97l.34-.97" stroke="#b1d6f0" stroke-width="2" fill="none"/><path d="M1243.34 806.03l196.33-565.1" fill="none"/><path d="M1243.34 806.03l6.54-18.84m6.55-18.84l13.1-37.68m6.53-18.83l13.1-37.67m6.53-18.84l13.08-37.67m6.55-18.84l13.1-37.67m6.53-18.84l13.1-37.67m6.53-18.84l13.08-37.66m6.55-18.83l13.1-37.67m6.53-18.83l13.1-37.67m6.53-18.84l13.08-37.68m6.55-18.84l6.54-18.84M1243.35 806l-.34.97M1439.66 240.97l.34-.97" stroke="#b1d6f0" stroke-width="2" fill="none"/><path d="M960.33 1039.06l279.34-798.12" fill="none"/><path d="M960.33 1039.06l3.33-9.5m3.32-9.5l6.65-19m3.33-9.5l6.65-19m3.33-9.5l6.66-19.02m3.3-9.5l6.66-19m3.33-9.5l6.64-19m3.32-9.5l6.65-19m3.34-9.5l6.65-19m3.32-9.5l6.65-19.02m3.32-9.5l6.64-19m3.33-9.5l6.65-19m3.33-9.5l6.65-19m3.32-9.5l6.65-19m3.33-9.5l6.65-19.02m3.32-9.5l6.66-19m3.32-9.5l6.65-19m3.33-9.5l6.65-19m3.32-9.5l6.65-19m3.33-9.5l6.65-19.02m3.33-9.5l6.65-19m3.33-9.5l6.65-19m3.33-9.5l6.66-19m3.33-9.5l6.64-19m3.32-9.5l6.65-19.02m3.34-9.5l6.65-19m3.3-9.5l6.67-19m3.32-9.5l6.64-19m3.33-9.5l6.65-19m3.32-9.5l3.33-9.52M960.34 1039.03l-.34.97M1239.66 240.97l.34-.97" stroke="#b1d6f0" stroke-width="2" fill="none"/><path d="M1080.67 479c0-1.1.9-2 2-2h76c1.1 0 2 .9 2 2v134c0 1.1-.9 2-2 2h-76c-1.1 0-2-.9-2-2z" fill="#fff" fill-opacity="0"/><path d="M1080.67 508c0-1.1.9-2 2-2h76c1.1 0 2 .9 2 2v76c0 1.1-.9 2-2 2h-76c-1.1 0-2-.9-2-2z" fill="#fff" fill-opacity="0"/><use xlink:href="#g" transform="matrix(1,0,0,1,1085.666066661417,511) translate(26.185185185185183 45.66666666666667)"/><path d="M844.15 807.13l391.42 2.95" fill="none"/><path d="M844.15 807.13l10.35.08m10.36.1h2.07m10.35.08l20.7.16m10.37.07l2.07.03m10.36.08l20.7.16m10.36.08l2.07.02m10.37.08l20.7.15m10.36.07l2.07.02m10.36.06l20.7.16m10.37.08h2.07m10.35.1l20.7.15m10.37.08h2.07m10.34.1l20.7.15m10.37.08h2.08m10.36.1l20.7.15m10.36.08l2.07.02m10.36.08l20.7.15m10.36.08l2.06.03m10.36.08l10.35.08M844.17 807.13h-1.02M1235.55 810.08h1.02M1063.56 743.26l.05-1.1.27-1.6.34-1.3.42-1.08.46-.9.5-.8.56-.67.6-.6.66-.53.74-.5.84-.4.95-.38 1.12-.3 1.33-.22 1.63-.1 2.03.12 2.56.4 3.3.88 4.23 1.63 5.26 2.68 6.06 3.92 6.2 5 5.58 5.52 2.1 2.4 5.03 6.67 3.12 5.03 2.1 4.23 1.5 3.88 1.07 3.84.77 4.2.47 5.5-.28 19.57M1063.56 743.24l-.05 1.02M1125.12 808.23v1.02" stroke="#b1d6f0" stroke-width="2" fill="none"/><path d="M1100.67 708c0-1.1.9-2 2-2h76c1.1 0 2 .9 2 2v76c0 1.1-.9 2-2 2h-76c-1.1 0-2-.9-2-2z" fill="#fff" fill-opacity="0"/><use xlink:href="#h" transform="matrix(1,0,0,1,1105.666066661417,711) translate(20.185185185185183 45.66666666666667)"/><path d="M1075.65 712.56l163.6 90.8" fill="none"/><path d="M1075.65 712.56l9.1 5.04m9.08 5.05l18.17 10.1m9.1 5.03l18.17 10.1m9.08 5.04l18.18 10.1m9.1 5.03l18.17 10.1m9.08 5.03l18.18 10.1m9.1 5.04l9.08 5.04M1075.67 712.57l-.9-.5M1239.2 803.35l.9.5" stroke="#b1d6f0" stroke-width="2" fill="none"/><path d="M840.46 803.7l172.07 83.2" fill="none"/><path d="M840.46 803.7l9.56 4.6m9.56 4.63l19.1 9.25m9.57 4.62l19.12 9.25m9.56 4.62l19.12 9.25m9.56 4.62l19.13 9.24m9.56 4.63l19.1 9.25m9.57 4.63l9.56 4.62M840.48 803.7l-.92-.45M1012.5 886.9l.93.43" stroke="#b1d6f0" stroke-width="2" fill="none"/><path d="M1000.67 648c0-1.1.9-2 2-2h76c1.1 0 2 .9 2 2v76c0 1.1-.9 2-2 2h-76c-1.1 0-2-.9-2-2z" fill="#fff" fill-opacity="0"/><use xlink:href="#i" transform="matrix(1,0,0,1,1005.6666666666667,651) translate(12.185185185185183 45.66666666666667)"/><path d="M1000.67 890c0-1.1.9-2 2-2h76c1.1 0 2 .9 2 2v134c0 1.1-.9 2-2 2h-76c-1.1 0-2-.9-2-2z" fill="#fff" fill-opacity="0"/><use xlink:href="#j" transform="matrix(1,0,0,1,1005.6666666666667,893) translate(10.777777777777775 74.66666666666667)"/><defs><path fill="#b1d6f0" d="M16-82v-28h88v28H16" id="k"/><path fill="#b1d6f0" d="M145-31C134-9 116 4 85 4 32 4 16-35 15-94c0-59 17-99 70-100 32-1 48 14 60 33 0-11-1-24 2-32h30l-1 268h-32zM93-21c41 0 51-33 51-76s-8-73-50-73c-40 0-46 35-46 75s5 74 45 74" id="l"/><g id="a"><use transform="matrix(0.14814814814814817,0,0,0.14814814814814817,0,0)" xlink:href="#k"/><use transform="matrix(0.14814814814814817,0,0,0.14814814814814817,17.629629629629633,0)" xlink:href="#l"/></g><use transform="matrix(0.14814814814814817,0,0,0.14814814814814817,0,0)" xlink:href="#l" id="b"/><path fill="#b1d6f0" d="M101-251c82-7 93 87 43 132L82-64C71-53 59-42 53-27h129V0H18c2-99 128-94 128-182 0-28-16-43-45-43s-46 15-49 41l-32-3c6-41 34-60 81-64" id="m"/><path fill="#b1d6f0" d="M85-194c31 0 48 13 60 33l-1-100h32l1 261h-30c-2-10 0-23-3-31C134-8 116 4 85 4 32 4 16-35 15-94c0-66 23-100 70-100zm9 24c-40 0-46 34-46 75 0 40 6 74 45 74 42 0 51-32 51-76 0-42-9-74-50-73" id="n"/><g id="c"><use transform="matrix(0.14814814814814817,0,0,0.14814814814814817,0,0)" xlink:href="#m"/><use transform="matrix(0.14814814814814817,0,0,0.14814814814814817,29.629629629629633,0)" xlink:href="#n"/></g><path fill="#b1d6f0" d="M190 0L58-211 59 0H30v-248h39L202-35l-2-213h31V0h-41" id="o"/><use transform="matrix(0.14814814814814817,0,0,0.14814814814814817,0,0)" xlink:href="#o" id="d"/><path fill="#b1d6f0" d="M30-248c87 1 191-15 191 75 0 78-77 80-158 76V0H30v-248zm33 125c57 0 124 11 124-50 0-59-68-47-124-48v98" id="p"/><use transform="matrix(0.14814814814814817,0,0,0.14814814814814817,0,0)" xlink:href="#p" id="e"/><path fill="#b1d6f0" d="M140-251c81 0 123 46 123 126C263-46 219 4 140 4 59 4 17-45 17-125s42-126 123-126zm0 227c63 0 89-41 89-101s-29-99-89-99c-61 0-89 39-89 99S79-25 140-24" id="q"/><use transform="matrix(0.14814814814814817,0,0,0.14814814814814817,0,0)" xlink:href="#q" id="f"/><path fill="#b1d6f0" d="M114-163C36-179 61-72 57 0H25l-1-190h30c1 12-1 29 2 39 6-27 23-49 58-41v29" id="r"/><use transform="matrix(0.14814814814814817,0,0,0.14814814814814817,0,0)" xlink:href="#r" id="g"/><path fill="#b1d6f0" d="M100-261c69 0 82 60 82 132C182-53 163 4 99 4 34 4 19-58 19-129c0-75 17-132 81-132zM52-118c0 55 11 112 67 94 24-15 28-52 29-94H52zm96-23c0-56-10-111-67-93-24 16-28 50-29 93h96" id="s"/><use transform="matrix(0.14814814814814817,0,0,0.14814814814814817,0,0)" xlink:href="#s" id="h"/><path fill="#b1d6f0" d="M47-170H22l-4-78h33" id="t"/><g id="i"><use transform="matrix(0.14814814814814817,0,0,0.14814814814814817,0,0)" xlink:href="#p"/><use transform="matrix(0.14814814814814817,0,0,0.14814814814814817,35.55555555555556,0)" xlink:href="#t"/></g><g id="j"><use transform="matrix(0.14814814814814817,0,0,0.14814814814814817,0,0)" xlink:href="#o"/><use transform="matrix(0.14814814814814817,0,0,0.14814814814814817,38.370370370370374,0)" xlink:href="#t"/></g></defs></g></svg>