<svg xmlns="http://www.w3.org/2000/svg" xmlns:xlink="http://www.w3.org/1999/xlink" xmlns:lucid="lucid" width="680" height="480"><g transform="translate(-380 -200)" lucid:page-tab-id="0_0"><path d="M480 442c0-1.1.9-2 2-2h76c1.1 0 2 .9 2 2v76c0 1.1-.9 2-2 2h-76c-1.1 0-2-.9-2-2z" fill="#fff" fill-opacity="0"/><use xlink:href="#a" transform="matrix(1,0,0,1,485,445) translate(11.370370370370367 45.66666666666667)"/><path d="M880 442c0-1.1.9-2 2-2h76c1.1 0 2 .9 2 2v76c0 1.1-.9 2-2 2h-76c-1.1 0-2-.9-2-2z" fill="#fff" fill-opacity="0"/><use xlink:href="#b" transform="matrix(1,0,0,1,885.0012000104996,445) translate(20.185185185185183 45.66666666666667)"/><path d="M860.32 280.4l-199.7-.36M860.28 280.4h1.54" stroke="#b1d6f0" stroke-width="3" fill="none"/><path d="M644.85 280l14.28-4.6-.02 9.27z" stroke="#b1d6f0" stroke-width="3" fill="#b1d6f0"/><path d="M520 580h400M521.5 565v30M918.5 595v-30" stroke="#b1d6f0" stroke-width="3" fill="none"/><path d="M680 582c0-1.1.9-2 2-2h76c1.1 0 2 .9 2 2v76c0 1.1-.9 2-2 2h-76c-1.1 0-2-.9-2-2z" fill="#fff" fill-opacity="0"/><use xlink:href="#c" transform="matrix(1,0,0,1,685.0006000052498,585) translate(20.185185185185183 45.66666666666667)"/><path d="M720 222c0-1.1.9-2 2-2h76c1.1 0 2 .9 2 2v76c0 1.1-.9 2-2 2h-76c-1.1 0-2-.9-2-2z" fill="#fff" fill-opacity="0"/><use xlink:href="#d" transform="matrix(1,0,0,1,725,225) translate(17.22222222222222 45.66666666666667)"/><path d="M501.06 558.94l37.88-37.88M501.1 558.9L500 560M538.9 521.1l1.1-1.1M538.98 558.9l-35.08-37.8M538.95 558.87L540 560" stroke="#b1d6f0" stroke-width="3" fill="none"/><path d="M505.03 520.1l-2.2 2.05-2-2.15h4.1z" fill="#b1d6f0"/><path d="M901.06 558.94l37.88-37.88M901.1 558.9L900 560M938.9 521.1l1.1-1.1M938.98 558.9l-35.08-37.8M938.95 558.87L940 560M903.93 521.13l-1.05-1.13" stroke="#b1d6f0" stroke-width="3" fill="none"/><path d="M400 502c0-1.1.9-2 2-2h76c1.1 0 2 .9 2 2v76c0 1.1-.9 2-2 2h-76c-1.1 0-2-.9-2-2z" fill="#fff" fill-opacity="0"/><use xlink:href="#e" transform="matrix(1,0,0,1,405,505) translate(15.814814814814813 45.66666666666667)"/><path d="M960 502c0-1.1.9-2 2-2h76c1.1 0 2 .9 2 2v76c0 1.1-.9 2-2 2h-76c-1.1 0-2-.9-2-2z" fill="#fff" fill-opacity="0"/><use xlink:href="#f" transform="matrix(1,0,0,1,965.0012000104996,505) translate(17.22222222222222 45.66666666666667)"/><path d="M680 433c0-1.1.9-2 2-2h76c1.1 0 2 .9 2 2v134c0 1.1-.9 2-2 2h-76c-1.1 0-2-.9-2-2z" fill="#fff" fill-opacity="0"/><path d="M680 462c0-1.1.9-2 2-2h76c1.1 0 2 .9 2 2v76c0 1.1-.9 2-2 2h-76c-1.1 0-2-.9-2-2z" fill="#fff" fill-opacity="0"/><use xlink:href="#g" transform="matrix(1,0,0,1,685.0006000052498,465) translate(14.259259259259256 45.66666666666667)"/><path d="M701.06 558.94l37.88-37.88M701.1 558.9L700 560M738.9 521.1l1.1-1.1M738.98 558.9l-35.08-37.8M738.95 558.87L740 560M703.93 521.13l-1.05-1.13M841.06 298.94l37.88-37.88M841.1 298.9L840 300M878.9 261.1l1.1-1.1M878.98 298.9l-35.08-37.8M878.95 298.87L880 300M843.93 261.13l-1.05-1.13" stroke="#b1d6f0" stroke-width="3" fill="none"/><path d="M880 242c0-1.1.9-2 2-2h76c1.1 0 2 .9 2 2v76c0 1.1-.9 2-2 2h-76c-1.1 0-2-.9-2-2z" fill="#fff" fill-opacity="0"/><use xlink:href="#h" transform="matrix(1,0,0,1,885.0012000104996,245) translate(12.851851851851848 45.66666666666667)"/><defs><path fill="#b1d6f0" d="M16-82v-28h88v28H16" id="i"/><path fill="#b1d6f0" d="M145-31C134-9 116 4 85 4 32 4 16-35 15-94c0-59 17-99 70-100 32-1 48 14 60 33 0-11-1-24 2-32h30l-1 268h-32zM93-21c41 0 51-33 51-76s-8-73-50-73c-40 0-46 35-46 75s5 74 45 74" id="j"/><g id="a"><use transform="matrix(0.14814814814814817,0,0,0.14814814814814817,0,0)" xlink:href="#i"/><use transform="matrix(0.14814814814814817,0,0,0.14814814814814817,17.629629629629633,0)" xlink:href="#j"/></g><use transform="matrix(0.14814814814814817,0,0,0.14814814814814817,0,0)" xlink:href="#j" id="b"/><path fill="#b1d6f0" d="M85-194c31 0 48 13 60 33l-1-100h32l1 261h-30c-2-10 0-23-3-31C134-8 116 4 85 4 32 4 16-35 15-94c0-66 23-100 70-100zm9 24c-40 0-46 34-46 75 0 40 6 74 45 74 42 0 51-32 51-76 0-42-9-74-50-73" id="k"/><use transform="matrix(0.14814814814814817,0,0,0.14814814814814817,0,0)" xlink:href="#k" id="c"/><path fill="#b1d6f0" d="M24 0v-248h195v40H76v63h132v40H76v65h150V0H24" id="l"/><use transform="matrix(0.14814814814814817,0,0,0.14814814814814817,0,0)" xlink:href="#l" id="d"/><path fill="#b1d6f0" d="M190 0L58-211 59 0H30v-248h39L202-35l-2-213h31V0h-41" id="m"/><use transform="matrix(0.14814814814814817,0,0,0.14814814814814817,0,0)" xlink:href="#m" id="e"/><path fill="#b1d6f0" d="M30-248c87 1 191-15 191 75 0 78-77 80-158 76V0H30v-248zm33 125c57 0 124 11 124-50 0-59-68-47-124-48v98" id="n"/><use transform="matrix(0.14814814814814817,0,0,0.14814814814814817,0,0)" xlink:href="#n" id="f"/><path fill="#b1d6f0" d="M140-251c81 0 123 46 123 126C263-46 219 4 140 4 59 4 17-45 17-125s42-126 123-126zm0 227c63 0 89-41 89-101s-29-99-89-99c-61 0-89 39-89 99S79-25 140-24" id="o"/><use transform="matrix(0.14814814814814817,0,0,0.14814814814814817,0,0)" xlink:href="#o" id="g"/><path fill="#b1d6f0" d="M240 0l2-218c-23 76-54 145-80 218h-23L58-218 59 0H30v-248h44l77 211c21-75 51-140 76-211h43V0h-30" id="p"/><use transform="matrix(0.14814814814814817,0,0,0.14814814814814817,0,0)" xlink:href="#p" id="h"/></defs></g></svg>