<svg xmlns="http://www.w3.org/2000/svg" xmlns:xlink="http://www.w3.org/1999/xlink" xmlns:lucid="lucid" width="680" height="820"><g transform="translate(-380 140)" lucid:page-tab-id="0_0"><path d="M480 442c0-1.1.9-2 2-2h76c1.1 0 2 .9 2 2v76c0 1.1-.9 2-2 2h-76c-1.1 0-2-.9-2-2z" fill="#fff" fill-opacity="0"/><use xlink:href="#a" transform="matrix(1,0,0,1,485,445) translate(11.370370370370367 45.66666666666667)"/><path d="M880 442c0-1.1.9-2 2-2h76c1.1 0 2 .9 2 2v76c0 1.1-.9 2-2 2h-76c-1.1 0-2-.9-2-2z" fill="#fff" fill-opacity="0"/><use xlink:href="#b" transform="matrix(1,0,0,1,885.0012000104996,445) translate(20.185185185185183 45.66666666666667)"/><path d="M837.3-21.94L678.86-91.7M837.25-21.96l1.4.62" stroke="#b1d6f0" stroke-width="3" fill="none"/><path d="M664.44-98.04l14.93 1.5-3.74 8.5z" stroke="#b1d6f0" stroke-width="3" fill="#b1d6f0"/><path d="M520 580h400M521.5 565v30M918.5 595v-30" stroke="#b1d6f0" stroke-width="3" fill="none"/><path d="M680 582c0-1.1.9-2 2-2h76c1.1 0 2 .9 2 2v76c0 1.1-.9 2-2 2h-76c-1.1 0-2-.9-2-2z" fill="#fff" fill-opacity="0"/><use xlink:href="#c" transform="matrix(1,0,0,1,685.0006000052498,585) translate(5.370370370370367 45.66666666666667)"/><path d="M720-118c0-1.1.9-2 2-2h76c1.1 0 2 .9 2 2v76c0 1.1-.9 2-2 2h-76c-1.1 0-2-.9-2-2z" fill="#fff" fill-opacity="0"/><use xlink:href="#d" transform="matrix(1,0,0,1,725,-115) translate(17.22222222222222 45.66666666666667)"/><path d="M501.06 558.94l37.88-37.88M501.1 558.9L500 560M538.9 521.1l1.1-1.1M538.98 558.9l-35.08-37.8M538.95 558.87L540 560" stroke="#b1d6f0" stroke-width="3" fill="none"/><path d="M505.03 520.1l-2.2 2.05-2-2.15h4.1z" fill="#b1d6f0"/><path d="M901.06 558.94l37.88-37.88M901.1 558.9L900 560M938.9 521.1l1.1-1.1M938.98 558.9l-35.08-37.8M938.95 558.87L940 560M903.93 521.13l-1.05-1.13" stroke="#b1d6f0" stroke-width="3" fill="none"/><path d="M400 502c0-1.1.9-2 2-2h76c1.1 0 2 .9 2 2v76c0 1.1-.9 2-2 2h-76c-1.1 0-2-.9-2-2z" fill="#fff" fill-opacity="0"/><use xlink:href="#e" transform="matrix(1,0,0,1,405,505) translate(15.814814814814813 45.66666666666667)"/><path d="M960 502c0-1.1.9-2 2-2h76c1.1 0 2 .9 2 2v76c0 1.1-.9 2-2 2h-76c-1.1 0-2-.9-2-2z" fill="#fff" fill-opacity="0"/><use xlink:href="#f" transform="matrix(1,0,0,1,965.0012000104996,505) translate(17.22222222222222 45.66666666666667)"/><path d="M680 433c0-1.1.9-2 2-2h76c1.1 0 2 .9 2 2v134c0 1.1-.9 2-2 2h-76c-1.1 0-2-.9-2-2z" fill="#fff" fill-opacity="0"/><path d="M680 462c0-1.1.9-2 2-2h76c1.1 0 2 .9 2 2v76c0 1.1-.9 2-2 2h-76c-1.1 0-2-.9-2-2z" fill="#fff" fill-opacity="0"/><use xlink:href="#g" transform="matrix(1,0,0,1,685.0006000052498,465) translate(14.259259259259256 45.66666666666667)"/><path d="M701.06 558.94l37.88-37.88M701.1 558.9L700 560M738.9 521.1l1.1-1.1M738.98 558.9l-35.08-37.8M738.95 558.87L740 560M703.93 521.13l-1.05-1.13M821.06-1.06l37.88-37.88M821.1-1.1L820 0M858.9-38.9L860-40M858.94-1.06l-37.88-37.88M858.9-1.1L860 0M821.1-38.9L820-40" stroke="#b1d6f0" stroke-width="3" fill="none"/><path d="M860-58c0-1.1.9-2 2-2h76c1.1 0 2 .9 2 2v76c0 1.1-.9 2-2 2h-76c-1.1 0-2-.9-2-2z" fill="#fff" fill-opacity="0"/><use xlink:href="#h" transform="matrix(1,0,0,1,865,-55) translate(12.851851851851848 45.66666666666667)"/><path d="M521.85 537.77L840.5-20.13" fill="none"/><path d="M521.85 537.77l9.66-16.9m9.66-16.9l19.32-33.82m9.65-16.9l19.3-33.82m9.67-16.9l19.3-33.8m9.66-16.92l19.32-33.8m9.65-16.9l19.3-33.82m9.67-16.9l19.3-33.8m9.67-16.92l19.3-33.8m9.66-16.92l19.3-33.8m9.67-16.92l19.3-33.8m9.67-16.9l19.3-33.82m9.66-16.9l9.66-16.92M521.87 537.75l-.5.9M840.48-20.1l.5-.88" stroke="#b1d6f0" stroke-width="2" fill="none"/><path d="M922.2 539.98L839.4-18.25" fill="none"/><path d="M922.2 539.98l-3.07-20.67m-3.07-20.67l-6.13-41.35m-3.07-20.67l-6.13-41.34m-3.07-20.68l-6.13-41.35m-3.07-20.68l-6.13-41.35m-3.07-20.67l-6.13-41.35m-3.07-20.68l-6.14-41.35m-3.06-20.67l-6.14-41.36m-3.06-20.67l-6.14-41.35m-3.06-20.68l-3.07-20.67M922.2 539.96l.14 1M839.4-18.23l-.16-1" stroke="#b1d6f0" stroke-width="2" fill="none"/><path d="M717.97 541.26L837.87-17.1" fill="none"/><path d="M717.97 541.26l2.1-9.8m2.1-9.8l4.22-19.58m2.1-9.8l4.2-19.6m2.1-9.8l4.2-19.58m2.1-9.8l4.22-19.58m2.1-9.8l4.2-19.6m2.1-9.8l4.22-19.58m2.1-9.8l4.2-19.6m2.1-9.78l4.22-19.6m2.1-9.8l4.2-19.58m2.1-9.8l4.22-19.6m2.1-9.8l4.2-19.58m2.1-9.8l4.22-19.6m2.1-9.78l4.2-19.6m2.1-9.8l4.22-19.58m2.1-9.8l4.2-19.6m2.12-9.78l4.2-19.6m2.1-9.8l4.2-19.58m2.12-9.8l4.2-19.6m2.1-9.8l2.1-9.78M717.98 541.24l-.22 1M837.87-17.08l.2-1" stroke="#b1d6f0" stroke-width="2" fill="none"/><path d="M760 213c0-1.1.9-2 2-2h76c1.1 0 2 .9 2 2v134c0 1.1-.9 2-2 2h-76c-1.1 0-2-.9-2-2z" fill="#fff" fill-opacity="0"/><path d="M760 242c0-1.1.9-2 2-2h76c1.1 0 2 .9 2 2v76c0 1.1-.9 2-2 2h-76c-1.1 0-2-.9-2-2z" fill="#fff" fill-opacity="0"/><use xlink:href="#i" transform="matrix(1,0,0,1,765,245) translate(26.185185185185183 45.66666666666667)"/><path d="M523.48 541.13l391.43 2.95" fill="none"/><path d="M523.48 541.13l10.36.08m10.35.1h2.06m10.36.08l20.7.16m10.36.07l2.07.03m10.36.08l20.72.16m10.36.08l2.07.02m10.35.08l20.7.15m10.37.07l2.07.02m10.35.06l20.7.16m10.36.08h2.07m10.36.1l20.7.15m10.35.08h2.07m10.36.1l20.7.15m10.36.08h2.07m10.37.1l20.7.15m10.36.08l2.08.02m10.36.08l20.7.15m10.37.08l2.07.03m10.35.08l10.36.08M523.5 541.13h-1.02M914.88 544.08h1.03M735.8 459v-.45l.17-1.17.22-.97.26-.82.3-.7.34-.64.36-.55.4-.5.44-.47.48-.42.52-.38.6-.35.67-.32.76-.3.9-.24 1.07-.2 1.3-.1h1.6l2.03.17 2.65.48 3.5.96 4.63 1.74 5.98 2.87 7.08 4.2 7.23 5.22 6.24 5.4 4.72 4.88 1.3 1.52 2.75 3.58 2.33 3.58 2 3.64 1.7 3.77 1.45 4 1.2 4.38 1 5 .7 6.1.34 8.74-.56 21.63" stroke="#b1d6f0" stroke-width="2" fill="none"/><path d="M736.8 459.02l-.05.98h-2l.05-1.07z" fill="#b1d6f0"/><path d="M804.47 542.23l-.03 1.02" stroke="#b1d6f0" stroke-width="2" fill="none"/><path d="M780 442c0-1.1.9-2 2-2h76c1.1 0 2 .9 2 2v76c0 1.1-.9 2-2 2h-76c-1.1 0-2-.9-2-2z" fill="#fff" fill-opacity="0"/><use xlink:href="#j" transform="matrix(1,0,0,1,785,445) translate(20.185185185185183 45.66666666666667)"/><defs><path fill="#b1d6f0" d="M16-82v-28h88v28H16" id="k"/><path fill="#b1d6f0" d="M145-31C134-9 116 4 85 4 32 4 16-35 15-94c0-59 17-99 70-100 32-1 48 14 60 33 0-11-1-24 2-32h30l-1 268h-32zM93-21c41 0 51-33 51-76s-8-73-50-73c-40 0-46 35-46 75s5 74 45 74" id="l"/><g id="a"><use transform="matrix(0.14814814814814817,0,0,0.14814814814814817,0,0)" xlink:href="#k"/><use transform="matrix(0.14814814814814817,0,0,0.14814814814814817,17.629629629629633,0)" xlink:href="#l"/></g><use transform="matrix(0.14814814814814817,0,0,0.14814814814814817,0,0)" xlink:href="#l" id="b"/><path fill="#b1d6f0" d="M101-251c82-7 93 87 43 132L82-64C71-53 59-42 53-27h129V0H18c2-99 128-94 128-182 0-28-16-43-45-43s-46 15-49 41l-32-3c6-41 34-60 81-64" id="m"/><path fill="#b1d6f0" d="M85-194c31 0 48 13 60 33l-1-100h32l1 261h-30c-2-10 0-23-3-31C134-8 116 4 85 4 32 4 16-35 15-94c0-66 23-100 70-100zm9 24c-40 0-46 34-46 75 0 40 6 74 45 74 42 0 51-32 51-76 0-42-9-74-50-73" id="n"/><g id="c"><use transform="matrix(0.14814814814814817,0,0,0.14814814814814817,0,0)" xlink:href="#m"/><use transform="matrix(0.14814814814814817,0,0,0.14814814814814817,29.629629629629633,0)" xlink:href="#n"/></g><path fill="#b1d6f0" d="M24 0v-248h195v40H76v63h132v40H76v65h150V0H24" id="o"/><use transform="matrix(0.14814814814814817,0,0,0.14814814814814817,0,0)" xlink:href="#o" id="d"/><path fill="#b1d6f0" d="M190 0L58-211 59 0H30v-248h39L202-35l-2-213h31V0h-41" id="p"/><use transform="matrix(0.14814814814814817,0,0,0.14814814814814817,0,0)" xlink:href="#p" id="e"/><path fill="#b1d6f0" d="M30-248c87 1 191-15 191 75 0 78-77 80-158 76V0H30v-248zm33 125c57 0 124 11 124-50 0-59-68-47-124-48v98" id="q"/><use transform="matrix(0.14814814814814817,0,0,0.14814814814814817,0,0)" xlink:href="#q" id="f"/><path fill="#b1d6f0" d="M140-251c81 0 123 46 123 126C263-46 219 4 140 4 59 4 17-45 17-125s42-126 123-126zm0 227c63 0 89-41 89-101s-29-99-89-99c-61 0-89 39-89 99S79-25 140-24" id="r"/><use transform="matrix(0.14814814814814817,0,0,0.14814814814814817,0,0)" xlink:href="#r" id="g"/><path fill="#b1d6f0" d="M240 0l2-218c-23 76-54 145-80 218h-23L58-218 59 0H30v-248h44l77 211c21-75 51-140 76-211h43V0h-30" id="s"/><use transform="matrix(0.14814814814814817,0,0,0.14814814814814817,0,0)" xlink:href="#s" id="h"/><path fill="#b1d6f0" d="M114-163C36-179 61-72 57 0H25l-1-190h30c1 12-1 29 2 39 6-27 23-49 58-41v29" id="t"/><use transform="matrix(0.14814814814814817,0,0,0.14814814814814817,0,0)" xlink:href="#t" id="i"/><path fill="#b1d6f0" d="M100-261c69 0 82 60 82 132C182-53 163 4 99 4 34 4 19-58 19-129c0-75 17-132 81-132zM52-118c0 55 11 112 67 94 24-15 28-52 29-94H52zm96-23c0-56-10-111-67-93-24 16-28 50-29 93h96" id="u"/><use transform="matrix(0.14814814814814817,0,0,0.14814814814814817,0,0)" xlink:href="#u" id="j"/></defs></g></svg>