<svg xmlns="http://www.w3.org/2000/svg" xmlns:xlink="http://www.w3.org/1999/xlink" xmlns:lucid="lucid" width="900" height="403.11"><g transform="translate(-480 -240)" lucid:page-tab-id="0_0"><path d="M762.32 280.93l373.5 149.4M762.38 280.95L760 280" stroke="#99d2f2" stroke-width="5" fill="none"/><path d="M1151.37 436.57l-14.96-1 3.45-8.6z" stroke="#99d2f2" stroke-width="5" fill="#99d2f2"/><path d="M762.32 599.07l374.6-149.84M762.38 599.05L760 600" stroke="#99d2f2" stroke-width="5" fill="none"/><path d="M1152.5 443l-11.54 9.6-3.44-8.6z" stroke="#99d2f2" stroke-width="5" fill="#99d2f2"/><path d="M1120 400h240v60h-240z" stroke="#000" stroke-opacity="0" stroke-width="5" fill="#fff" fill-opacity="0"/><use xlink:href="#a" transform="matrix(1,0,0,1,1125,405) translate(49.8046875 32.994791666666664)"/><use xlink:href="#b" transform="matrix(1,0,0,1,1125,405) translate(129.81770833333334 32.994791666666664)"/><path d="M741.08 432.26l59.52 124.78" stroke="#99d2f2" stroke-width="5" fill="none"/><path d="M743.36 431.24l-3.36 1.6v-6.16l.96-.46z" fill="#99d2f2"/><path d="M807.82 572.18L797.5 561.3l8.36-4z" stroke="#99d2f2" stroke-width="5" fill="#99d2f2"/><path d="M861.3 442.13L906 515.2M861.34 442.2L860 440" stroke="#99d2f2" stroke-width="5" fill="none"/><path d="M914.74 529.5l-11.4-9.74 7.92-4.84z" stroke="#99d2f2" stroke-width="5" fill="#99d2f2"/><path d="M941.98 441.53l53.2 41.3M942.03 441.57L940 440" stroke="#99d2f2" stroke-width="5" fill="none"/><path d="M1008.44 493.1l-14.12-5.08 5.7-7.32z" stroke="#99d2f2" stroke-width="5" fill="#99d2f2"/><path d="M1040.9 444.47l23.65 13.02M1040.95 444.5l-2.25-1.24" stroke="#99d2f2" stroke-width="5" fill="none"/><path d="M1079.23 465.57l-14.73-2.82 4.47-8.12z" stroke="#99d2f2" stroke-width="5" fill="#99d2f2"/><path d="M919.95 533.78l14.85-69.47M919.96 533.72l-.53 2.5" stroke="#99d2f2" stroke-width="5" fill="none"/><path d="M938.3 447.9l1.56 14.93-9.07-1.94z" stroke="#99d2f2" stroke-width="5" fill="#99d2f2"/><path d="M1018.28 494.73l12.55-31.63M1018.3 494.67l-.94 2.4" stroke="#99d2f2" stroke-width="5" fill="none"/><path d="M1037.02 447.52l-.96 14.97-8.6-3.43z" stroke="#99d2f2" stroke-width="5" fill="#99d2f2"/><path d="M1091.87 466.34l9.55-8.5M1091.92 466.3L1090 468" stroke="#99d2f2" stroke-width="5" fill="none"/><path d="M1113.95 446.7l-7.58 12.95-6.16-6.93z" stroke="#99d2f2" stroke-width="5" fill="#99d2f2"/><path d="M500 400h240v60H500z" stroke="#000" stroke-opacity="0" stroke-width="5" fill="#fff" fill-opacity="0"/><use xlink:href="#c" transform="matrix(1,0,0,1,505,405) translate(33.802083333333314 32.994791666666664)"/><use xlink:href="#d" transform="matrix(1,0,0,1,505,405) translate(129.81770833333331 32.994791666666664)"/><path d="M883.12 260l221.47 92.47-23.13 55.37L860 315.37z" stroke="#000" stroke-opacity="0" stroke-width="5" fill="#fff" fill-opacity="0"/><use xlink:href="#e" transform="matrix(0.9227943830711559,0.3852927803272789,-0.3852927803272789,0.9227943830711559,885.805074833356,266.5404358169921) translate(49.8046875 32.994791666666664)"/><use xlink:href="#f" transform="matrix(0.9227943830711559,0.3852927803272789,-0.3852927803272789,0.9227943830711559,885.805074833356,266.5404358169921) translate(81.80989583333334 32.994791666666664)"/><use xlink:href="#g" transform="matrix(0.9227943830711559,0.3852927803272789,-0.3852927803272789,0.9227943830711559,885.805074833356,266.5404358169921) translate(113.81510416666667 32.994791666666664)"/><path d="M874.6 567.2l223.6-87.2 21.8 55.9-223.6 87.2z" stroke="#000" stroke-opacity="0" stroke-width="5" fill="#fff" fill-opacity="0"/><use xlink:href="#h" transform="matrix(0.93163804257833,-0.3633876134664165,0.3633876134664165,0.93163804257833,881.0787412534396,570.0542793774996) translate(9.798177083333329 32.994791666666664)"/><use xlink:href="#f" transform="matrix(0.93163804257833,-0.3633876134664165,0.3633876134664165,0.93163804257833,881.0787412534396,570.0542793774996) translate(44.17317708333333 32.994791666666664)"/><use xlink:href="#i" transform="matrix(0.93163804257833,-0.3633876134664165,0.3633876134664165,0.93163804257833,881.0787412534396,570.0542793774996) translate(76.17838541666667 32.994791666666664)"/><path d="M821.27 573.37l31.8-109.5M821.3 573.3l-.73 2.47" stroke="#99d2f2" stroke-width="5" fill="none"/><path d="M857.74 447.77l.48 15-8.9-2.6z" stroke="#99d2f2" stroke-width="5" fill="#99d2f2"/><path d="M1122.5 441.82l11.58-.7" stroke="#99d2f2" stroke-width="5" fill="none"/><path d="M1122.7 444.3l-2.7.18v-5l2.4-.16z" fill="#99d2f2"/><path d="M1150.8 440.07l-13.94 5.5-.57-9.25z" stroke="#99d2f2" stroke-width="5" fill="#99d2f2"/><defs><path fill="#99d2f2" d="M891-1484c-201 251-362 514-362 954 0 441 161 704 362 955H701C500 176 342-90 342-532c0-440 159-704 359-952h190" id="j"/><path fill="#99d2f2" d="M715 0H502L69-1082h202c94 253 197 500 285 758 19 57 36 126 52 183 96-335 234-626 350-941h201" id="k"/><path fill="#99d2f2" d="M671-1188l264-103 45 132-282 73 185 250-119 72-150-258-156 256-119-72 189-248-280-73 45-134 267 107-12-297h136" id="l"/><path fill="#99d2f2" d="M259 363l169-662h265L382 363H259" id="m"/><g id="a"><use transform="matrix(0.013020833333333334,0,0,0.013020833333333334,0,0)" xlink:href="#j"/><use transform="matrix(0.013020833333333334,0,0,0.013020833333333334,16.002604166666668,0)" xlink:href="#k"/><use transform="matrix(0.013020833333333334,0,0,0.013020833333333334,32.005208333333336,0)" xlink:href="#l"/><use transform="matrix(0.013020833333333334,0,0,0.013020833333333334,48.0078125,0)" xlink:href="#m"/></g><path fill="#99d2f2" d="M1269 0c-193 57-358 6-358-228v-722H507c11 353-34 677-97 950H222c68-273 114-603 108-950-97-6-182 11-250 34v-137c353-68 842-11 1246-28v131h-239v683c-6 119 63 176 182 137V1" id="n"/><path fill="#99d2f2" d="M528-1484c201 248 357 511 357 952 0 442-156 709-357 957H336C537 174 700-89 700-530c0-440-163-703-364-954h192" id="o"/><g id="b"><use transform="matrix(0.013020833333333334,0,0,0.013020833333333334,0,0)" xlink:href="#n"/><use transform="matrix(0.013020833333333334,0,0,0.013020833333333334,18.372395833333336,0)" xlink:href="#l"/><use transform="matrix(0.013020833333333334,0,0,0.013020833333333334,34.375,0)" xlink:href="#o"/></g><path fill="#99d2f2" d="M1065-1013c47 164 49 500-1 665C999-130 875 20 611 20c-377 0-484-300-487-695-2-245 41-425 141-551 77-98 191-144 352-144 261 0 386 140 448 357zM741-155c199-92 203-504 159-785-26-168-96-284-283-284-281 0-308 256-311 549-2 181 18 324 80 428 46 77 115 118 227 120 47 0 90-10 128-28zM496-555v-249h235v249H496" id="p"/><g id="c"><use transform="matrix(0.013020833333333334,0,0,0.013020833333333334,0,0)" xlink:href="#k"/><use transform="matrix(0.013020833333333334,0,0,0.013020833333333334,16.002604166666668,0)" xlink:href="#j"/><use transform="matrix(0.013020833333333334,0,0,0.013020833333333334,32.005208333333336,0)" xlink:href="#p"/><use transform="matrix(0.013020833333333334,0,0,0.013020833333333334,48.0078125,0)" xlink:href="#o"/><use transform="matrix(0.013020833333333334,0,0,0.013020833333333334,64.01041666666667,0)" xlink:href="#m"/></g><g id="d"><use transform="matrix(0.013020833333333334,0,0,0.013020833333333334,0,0)" xlink:href="#n"/><use transform="matrix(0.013020833333333334,0,0,0.013020833333333334,18.372395833333336,0)" xlink:href="#j"/><use transform="matrix(0.013020833333333334,0,0,0.013020833333333334,34.375,0)" xlink:href="#p"/><use transform="matrix(0.013020833333333334,0,0,0.013020833333333334,50.37760416666667,0)" xlink:href="#o"/></g><use transform="matrix(0.013020833333333334,0,0,0.013020833333333334,0,0)" xlink:href="#k" id="e"/><path fill="#99d2f2" d="M116-856v-148h995v148H116zm0 512v-148h995v148H116" id="q"/><use transform="matrix(0.013020833333333334,0,0,0.013020833333333334,0,0)" xlink:href="#q" id="f"/><g id="g"><use transform="matrix(0.013020833333333334,0,0,0.013020833333333334,0,0)" xlink:href="#k"/><use transform="matrix(0.013020833333333334,0,0,0.013020833333333334,16.002604166666668,0)" xlink:href="#j"/><use transform="matrix(0.013020833333333334,0,0,0.013020833333333334,32.005208333333336,0)" xlink:href="#n"/><use transform="matrix(0.013020833333333334,0,0,0.013020833333333334,50.37760416666667,0)" xlink:href="#o"/></g><use transform="matrix(0.013020833333333334,0,0,0.013020833333333334,0,0)" xlink:href="#n" id="h"/><path fill="#99d2f2" d="M1048-32c-2 300-135 456-433 456-222-1-358-88-400-267l184-25c22 99 100 157 222 156 184-2 248-125 248-315 0-64 3-133-2-194C807-100 706-13 524-12c-306 0-381-228-381-537 0-318 85-550 400-550 164 0 271 83 325 202h3c1-60 3-134 12-185h171c-13 339-4 702-6 1050zM585-145c210-8 284-178 284-406 0-192-52-331-177-392-33-16-69-22-104-22-223 2-259 184-259 414 0 229 31 415 256 406" id="r"/><path fill="#99d2f2" d="M839-1102c70 0 148 7 206 17v167c-112-18-268-36-363 15-129 69-208 203-208 395V0H294c-10-367 32-789-52-1082h171c21 75 41 161 48 250h5c67-152 152-270 373-270" id="s"/><path fill="#99d2f2" d="M617-1102c355 0 481 238 477 599H322c5 222 84 388 301 388 144 0 244-59 284-166l158 45C1002-72 854 20 623 20c-342 0-490-220-490-568 0-346 151-554 484-554zm291 461c-18-192-90-328-289-328-194 0-287 128-295 328h584" id="t"/><path fill="#99d2f2" d="M865-914c-3-187-2-380-2-570h180v1261c0 76 1 155 6 223H877c-8-49-9-116-10-174h-5C801-44 708 26 530 26c-135 0-234-46-297-139s-95-232-95-419c0-377 131-566 392-566 176 0 271 63 335 184zm-286-51c-222 0-255 197-255 427 0 229 31 425 253 425 237 0 286-195 286-441 0-238-52-411-284-411" id="u"/><path fill="#99d2f2" d="M168 279c222 39 310-114 368-290L66-1082h192c120 299 249 590 362 896 115-301 235-597 351-896h190L705 0c-65 164-130 320-275 396-67 36-177 35-262 18V279" id="v"/><g id="i"><use transform="matrix(0.013020833333333334,0,0,0.013020833333333334,0,0)" xlink:href="#r"/><use transform="matrix(0.013020833333333334,0,0,0.013020833333333334,16.002604166666668,0)" xlink:href="#s"/><use transform="matrix(0.013020833333333334,0,0,0.013020833333333334,32.005208333333336,0)" xlink:href="#t"/><use transform="matrix(0.013020833333333334,0,0,0.013020833333333334,48.0078125,0)" xlink:href="#t"/><use transform="matrix(0.013020833333333334,0,0,0.013020833333333334,64.01041666666667,0)" xlink:href="#u"/><use transform="matrix(0.013020833333333334,0,0,0.013020833333333334,80.01302083333334,0)" xlink:href="#v"/><use transform="matrix(0.013020833333333334,0,0,0.013020833333333334,96.01562500000001,0)" xlink:href="#j"/><use transform="matrix(0.013020833333333334,0,0,0.013020833333333334,112.0182291666667,0)" xlink:href="#k"/><use transform="matrix(0.013020833333333334,0,0,0.013020833333333334,128.02083333333334,0)" xlink:href="#o"/></g></defs></g></svg>